<svg xmlns="http://www.w3.org/2000/svg" width="300" height="105" fill="none"><g fill="#1E1E1E" clip-path="url(#a)"><path d="M298.832 0h-62.335c-.08 0-1.169 1.099-1.169 1.186v61.975h43.639v20.524H0V105h298.832c.08 0 1.168-1.099 1.168-1.186V1.186C300 1.105 298.912 0 298.832 0m-19.871 41.84h-18.702V21.315h18.702z"/><path d="M107.535.79v41.055H56.107V.791H35.068v41.054H0v21.316h215.845V.79zm44.414 41.05h-23.375V21.315h22.207c.079 0 1.168 1.1 1.168 1.186v19.344zm43.633 0h-23.375V21.315h23.375z"/></g><defs><clipPath id="a"><path fill="#fff" d="M0 0h300v105H0z"/></clipPath></defs></svg>