<svg xmlns="http://www.w3.org/2000/svg" width="790" height="369" fill="none"><g fill="#fff" fill-opacity=".05" clip-path="url(#a)"><path d="M630.32 0v189.808h-58.83V0h-56.03v189.808h-58.83V0H92.45v189.808H0V369h56.03V245.764h235.32V369h56.03V52.72h53.23V369h56.03V245.764h173.69V369h56.03V0h-56.04M190.5 189.808h-42.02V52.72h42.02zm100.85 0h-44.82V52.72h44.82zM790 189.808h-56.03V369H790z"/><path d="M571.49 298.923h-56.03V369h56.03zM148.48 298.923H92.45V369h56.03zM246.53 298.923H190.5V369h56.03z"/></g><defs><clipPath id="a"><path fill="#fff" d="M0 0h790v369H0z"/></clipPath></defs></svg>