<svg width="790" height="369" viewBox="0 0 790 369" fill="none" xmlns="http://www.w3.org/2000/svg">
<g clip-path="url(#clip0_149_171)">
<path d="M630.32 0V189.808H571.49V0H515.46V189.808H456.63V0H92.45V189.808H0V369H56.03V245.764H291.35V369H347.38V52.72H400.61V369H456.64V245.764H630.33V369H686.36V0H630.33H630.32ZM190.5 189.808H148.48V52.72H190.5V189.808ZM291.35 189.808H246.53V52.72H291.35V189.808Z" fill="white" fill-opacity="0.05"/>
<path d="M790 189.808H733.97V369H790V189.808Z" fill="white" fill-opacity="0.05"/>
<path d="M571.49 298.923H515.46V369H571.49V298.923Z" fill="white" fill-opacity="0.05"/>
<path d="M148.48 298.923H92.45V369H148.48V298.923Z" fill="white" fill-opacity="0.05"/>
<path d="M246.53 298.923H190.5V369H246.53V298.923Z" fill="white" fill-opacity="0.05"/>
</g>
<defs>
<clipPath id="clip0_149_171">
<rect width="790" height="369" fill="white"/>
</clipPath>
</defs>
</svg>
