<svg width="1280" height="18" viewBox="0 0 1280 18" fill="none" xmlns="http://www.w3.org/2000/svg">
<g clip-path="url(#clip0_217_632)">
<path d="M1247.9 0V11.4377H1234.38V0H1227.62V11.4377H1218.33V0H1198.89V17.9698H1280V0H1247.9ZM1211.57 11.4377H1207.34V6.53202H1211.57V11.4377ZM1260.58 11.446H1254.66V6.53202H1260.58V11.446ZM1273.26 11.446H1267.33V6.53202H1273.26V11.446Z" fill="#F4F4F4"/>
<path d="M1162.56 0V11.4377H1148.2V0H1141.44V11.4377H1132.99V0H1113.56V17.9698H1194.67V0H1162.56ZM1126.25 11.4377H1121.17V6.52375H1126.25V11.4377ZM1175.25 11.446H1169.33V6.53202H1175.25V11.446ZM1187.92 11.446H1182V6.53202H1187.92V11.446Z" fill="#F4F4F4"/>
<path d="M1077.23 0V11.4377H1062.87V0H1056.1V11.4377H1046.82V0H1028.23V17.9698H1108.49V0H1077.23ZM1040.07 11.4377H1035.83V6.53202H1040.07V11.4377ZM1089.07 11.446H1083.99V6.53202H1089.07V11.446ZM1101.74 11.446H1096.66V6.53202H1101.74V11.446Z" fill="#F4F4F4"/>
<path d="M991.051 0V11.4377H977.534V0H970.772V11.4377H961.481V0H942.049V17.9698H1023.16V0H991.051ZM954.736 11.4377H950.501V6.53202H954.736V11.4377ZM1003.74 11.446H997.813V6.53202H1003.74V11.446ZM1016.42 11.446H1010.49V6.53202H1016.42V11.446Z" fill="#F4F4F4"/>
<path d="M905.717 0V11.4377H891.356V0H884.592V11.4377H876.148V0H856.714V17.9698H937.821V0H905.717ZM869.412 11.4377H864.33V6.52375H869.412V11.4377ZM918.412 11.446H912.487V6.53202H918.412V11.446ZM931.084 11.446H925.159V6.53202H931.084V11.446Z" fill="#F4F4F4"/>
<path d="M819.539 0V11.4377H806.022V0H799.26V11.4377H789.968V0H771.382V17.9698H851.643V0H819.539ZM783.232 11.4377H778.997V6.53202H783.232V11.4377ZM832.235 11.446H827.155V6.53202H832.235V11.446ZM844.907 11.446H838.979V6.53202H844.907V11.446Z" fill="#F4F4F4"/>
<path d="M734.204 0V11.4377H720.689V0H713.927V11.4377H704.636V0H685.202V17.9698H766.31V0H734.204ZM697.9 11.4377H692.82V6.52375H697.9V11.4377ZM746.902 11.446H740.975V6.53202H746.902V11.446ZM759.572 11.446H753.647V6.53202H759.572V11.446Z" fill="#F4F4F4"/>
<path d="M648.872 0V11.4377H634.509V0H627.747V11.4377H618.458V0H599.87V17.9698H680.976V0H648.872ZM611.72 11.4377H607.485V6.53202H611.72V11.4377ZM661.568 11.446H655.642V6.53202H661.568V11.446ZM674.248 11.446H668.323V6.53202H674.248V11.446Z" fill="#F4F4F4"/>
<path d="M562.692 0V11.4377H549.177V0H542.415V11.4377H533.124V0H514.537V17.9698H594.798V0H562.692ZM526.396 11.4377H522.161V6.53202H526.396V11.4377ZM575.398 11.446H569.473V6.53202H575.398V11.446ZM588.068 11.446H582.143V6.53202H588.068V11.446Z" fill="#F4F4F4"/>
<path d="M477.36 0V11.4377H462.997V0H456.235V11.4377H447.791V0H428.357V17.9698H509.464V0H477.36ZM441.062 11.4377H435.982V6.52375H441.062V11.4377ZM490.064 11.446H484.139V6.53202H490.064V11.446ZM502.736 11.446H496.811V6.53202H502.736V11.446Z" fill="#F4F4F4"/>
<path d="M392.027 0V11.4377H377.664V0H370.902V11.4377H361.611V0H343.025V17.9698H423.286V0H392.027ZM354.884 11.4377H350.649V6.53202H354.884V11.4377ZM404.731 11.446H398.806V6.53202H404.731V11.446ZM416.556 11.446H411.476V6.53202H416.556V11.446Z" fill="#F4F4F4"/>
<path d="M305.847 0V11.4377H292.332V0H285.568V11.4377H276.279V0H256.845V17.9698H337.953V0H305.847ZM269.551 11.4377H265.314V6.53202H269.551V11.4377ZM318.56 11.446H312.635V6.53202H318.56V11.446ZM331.232 11.446H325.307V6.53202H331.232V11.446Z" fill="#F4F4F4"/>
<path d="M49.0023 0V11.4377H35.4849V0H28.7231V11.4377H19.434V0H0V17.9698H81.1063V0H49.0023ZM12.7128 11.4377H8.47804V6.53202H12.7128V11.4377ZM61.7151 11.446H55.7899V6.53202H61.7151V11.446ZM74.3958 11.446H68.4706V6.53202H74.3958V11.446Z" fill="#F4F4F4"/>
<path d="M135.18 0V11.4377H120.817V0H114.056V11.4377H104.767V0H86.1777V17.9698H166.441V0H135.18ZM98.0474 11.4377H93.8127V6.53202H98.0474V11.4377ZM147.05 11.446H141.97V6.53202H147.05V11.446ZM159.72 11.446H153.794V6.53202H159.72V11.446Z" fill="#F4F4F4"/>
<path d="M220.515 0V11.4377H206.152V0H199.39V11.4377H190.946V0H171.512V17.9698H252.619V0H220.515ZM184.225 11.4377H179.145V6.52375H184.225V11.4377ZM233.228 11.446H227.302V6.53202H233.228V11.446ZM245.9 11.446H239.972V6.53202H245.9V11.446Z" fill="#F4F4F4"/>
</g>
<defs>
<clipPath id="clip0_217_632">
<rect width="1280" height="17.9698" fill="white"/>
</clipPath>
</defs>
</svg>
