<svg xmlns="http://www.w3.org/2000/svg" width="109" height="38" fill="none"><g fill="#fff" clip-path="url(#a)"><path d="M108.576 0H85.927c-.029 0-.424.398-.424.43v22.428h15.855v7.428H0V38h108.576c.029 0 .424-.398.424-.43V.43c0-.03-.395-.43-.424-.43m-7.22 15.142h-6.795V7.714h6.795z"/><path d="M39.071.286v14.858H20.386V.286H12.74v14.858H0v7.714h78.424V.286zm16.137 14.856h-8.493V7.714h8.069c.029 0 .424.398.424.43v7zm15.853 0h-8.493V7.714h8.493z"/></g><defs><clipPath id="a"><path fill="#fff" d="M0 0h109v38H0z"/></clipPath></defs></svg>